<svg xmlns="http://www.w3.org/2000/svg" viewBox="0 0 486.04 486.09"><title>Artboard 1</title><g id="Base"><circle cx="242.94" cy="243.03" r="242.86" style="fill:#333"/></g><g id="Control_Ring_Outer_Matte_Ring" data-name="Control Ring Outer Matte Ring"><circle cx="242.94" cy="243.03" r="139.1" style="fill:#333"/></g><g id="Control_Ring_Inner" data-name="Control Ring Inner"><g id="Inner_BG" data-name="Inner BG"><circle cx="242.94" cy="243.03" r="118.05" style="fill:#eee"/></g><text transform="translate(174.52 211.74)" style="font-size:48px;fill:#333;font-family:Phosphate-Inline, Phosphate">Simon</text></g><g id="Count_Box" data-name="Count Box"><g id="Count_Group" data-name="Count Group"><rect id="Display_Matte" data-name="Display Matte" x="168.06" y="230.24" width="60.27" height="36.36" rx="12" ry="12" style="fill:#222"/><rect id="Display_BG" data-name="Display BG" x="171.51" y="232.32" width="53.38" height="32.21" rx="12" ry="12" style="fill:#32050c"/><text transform="translate(178.78 257.95) scale(1.45 1)" style="font-size:33.1611442565918px;fill:#500;font-family:VT323-Regular, VT323;letter-spacing:-0.005004882713452763em">01</text><text transform="translate(178.78 257.95) scale(1.45 1)" style="font-size:33.1611442565918px;fill:#dc0d29;font-family:VT323-Regular, VT323;letter-spacing:-0.005004882713452763em">01</text></g><text transform="translate(186.04 281.27)" style="font-size:10px;font-family:Oswald-Light, Oswald">COUNT</text><text transform="translate(240.04 281.27)" style="font-size:10px;font-family:Oswald-Light, Oswald">S<tspan x="4.6" y="0" style="letter-spacing:-0.025em">T</tspan><tspan x="8.49" y="0">A</tspan><tspan x="13.26" y="0" style="letter-spacing:-0.010009765625em">R</tspan><tspan x="18.28" y="0">T</tspan></text><text transform="translate(274.04 281.27)" style="font-size:10px;font-family:Oswald-Light, Oswald">STRICT</text></g><g id="On_Off_Toggle" data-name="On Off Toggle"><rect x="223.04" y="299.94" width="38.66" height="20.67" rx="3" ry="3"/><text transform="translate(204.38 314.94)" style="font-size:10px;font-family:Oswald-Light, Oswald">OFF</text><text transform="translate(267.38 314.94)" style="font-size:10px;font-family:Oswald-Light, Oswald">ON</text><rect x="225.67" y="302.1" width="14.37" height="15.88" rx="2" ry="2" style="fill:#0090df"/></g><g id="Active_Buttons" data-name="Active Buttons"><g id="Lower_Left" data-name="Lower Left"><path d="M108.63,279.32H21.82A224.21,224.21,0,0,0,208.75,464.49V377.88A139.33,139.33,0,0,1,108.63,279.32Z" style="fill:#fed93f"/></g><g id="Lower_Right" data-name="Lower Right"><path d="M278.67,377.48v86.76A224.24,224.24,0,0,0,464.06,279.32H377.24A139.34,139.34,0,0,1,278.67,377.48Z" style="fill:#1c8cff"/></g><g id="Upper_right" data-name="Upper right"><path d="M377.93,209.4h86.55A224.21,224.21,0,0,0,278.67,21.81v86.76A139.31,139.31,0,0,1,377.93,209.4Z" style="fill:#ff4c4c"/></g><g id="Uppler_Left" data-name="Uppler Left"><path d="M208.75,108.17V21.56A224.2,224.2,0,0,0,21.39,209.4h86.55A139.31,139.31,0,0,1,208.75,108.17Z" style="fill:#13ff7c"/></g></g><g id="Strict_LED" data-name="Strict LED"><circle id="Outer_Matte" data-name="Outer Matte" cx="286.21" cy="228.94" r="4.17" style="fill:#333"/><circle id="Inner_Light_Inert" data-name="Inner Light Inert" cx="286.21" cy="228.94" r="2.67" style="fill:#8a1700"/><circle id="Inner_Light_Active" data-name="Inner Light Active" cx="286.21" cy="228.94" r="2.67" style="fill:#df0000"/></g><g id="Strict_Button" data-name="Strict Button"><circle id="Outer_Matte-2" data-name="Outer Matte" cx="285.71" cy="247.94" r="12" style="fill:#333"/><circle id="Inner_Button" data-name="Inner Button" cx="285.71" cy="247.94" r="8" style="fill:#dfbb00"/></g><g id="Start_Button" data-name="Start Button"><circle id="Outer_Matte-3" data-name="Outer Matte" cx="251.04" cy="247.94" r="12" style="fill:#333"/><circle id="Inner_Button-2" data-name="Inner Button" cx="251.04" cy="247.94" r="8" style="fill:#df0000"/></g><g id="Inert_Buttons" data-name="Inert Buttons"><g id="Lower_Left-2" data-name="Lower Left"><path d="M108.63,279.32H21.82A224.21,224.21,0,0,0,208.75,464.49V377.88A139.33,139.33,0,0,1,108.63,279.32Z" style="fill:#cca707"/></g><g id="Lower_Right-2" data-name="Lower Right"><path d="M278.67,377.48v86.76A224.24,224.24,0,0,0,464.06,279.32H377.24A139.34,139.34,0,0,1,278.67,377.48Z" style="fill:#094a8f"/></g><g id="Upper_right-2" data-name="Upper right"><path d="M377.93,209.4h86.55A224.21,224.21,0,0,0,278.67,21.81v86.76A139.31,139.31,0,0,1,377.93,209.4Z" style="fill:#9f0f17"/></g><g id="Uppler_Left-2" data-name="Uppler Left"><path d="M208.75,108.17V21.56A224.2,224.2,0,0,0,21.39,209.4h86.55A139.31,139.31,0,0,1,208.75,108.17Z" style="fill:#00a74a"/></g></g></svg>