<svg xmlns="http://www.w3.org/2000/svg" viewBox="0 0 486.04 486.09">
  <circle cx="242.94" cy="243.03" r="242.86" fill="#333"/>
  <circle cx="242.94" cy="243.03" r="139.1" fill="#333" data-name="Control Ring Outer Matte Ring"/>
  <g data-name="Control Ring Inner">
    <circle cx="242.94" cy="243.03" r="118.05" fill="#eee" data-name="Inner BG"/>
    <text fill="#333" font-family="Phosphate-Inline,Phosphate" font-size="48" transform="translate(174.52 211.74)">
      Simon
    </text>
  </g>
  <g data-name="Count Box">
    <g data-name="Count Group">
      <rect width="60.27" height="36.36" x="168.06" y="230.24" fill="#222" data-name="Display Matte" rx="12" ry="12"/>
      <rect width="53.38" height="32.21" x="171.51" y="232.32" fill="#32050c" data-name="Display BG" rx="12" ry="12"/>
      <text fill="#500" font-family="VT323-Regular,VT323" font-size="33.161" letter-spacing="-.005em" transform="matrix(1.45 0 0 1 178.78 257.95)">
        01
      </text>
      <text fill="#dc0d29" font-family="VT323-Regular,VT323" font-size="33.161" letter-spacing="-.005em" transform="matrix(1.45 0 0 1 178.78 257.95)">
        01
      </text>
    </g>
    <text font-family="Oswald-Light,Oswald" font-size="10" transform="translate(186.04 281.27)">
      COUNT
    </text>
    <text font-family="Oswald-Light,Oswald" font-size="10" transform="translate(240.04 281.27)">
      S<tspan x="4.6" y="0" letter-spacing="-.025em">T</tspan><tspan x="8.49" y="0">A</tspan><tspan x="13.26" y="0" letter-spacing="-.01em">R</tspan><tspan x="18.28" y="0">T</tspan>
    </text>
    <text font-family="Oswald-Light,Oswald" font-size="10" transform="translate(274.04 281.27)">
      STRICT
    </text>
  </g>
  <g data-name="On Off Toggle">
    <rect width="38.66" height="20.67" x="223.04" y="299.94" rx="3" ry="3"/>
    <text font-family="Oswald-Light,Oswald" font-size="10" transform="translate(204.38 314.94)">
      OFF
    </text>
    <text font-family="Oswald-Light,Oswald" font-size="10" transform="translate(267.38 314.94)">
      ON
    </text>
    <rect width="14.37" height="15.88" x="225.67" y="302.1" fill="#0090df" rx="2" ry="2"/>
  </g>
  <g data-name="Active Buttons">
    <path fill="#fed93f" d="M108.63 279.32H21.82a224.21 224.21 0 0 0 186.93 185.17v-86.61a139.33 139.33 0 0 1-100.12-98.56z" data-name="Lower Left"/>
    <path fill="#1c8cff" d="M278.67 377.48v86.76a224.24 224.24 0 0 0 185.39-184.92h-86.82a139.34 139.34 0 0 1-98.57 98.16z" data-name="Lower Right"/>
    <path fill="#ff4c4c" d="M377.93 209.4h86.55A224.21 224.21 0 0 0 278.67 21.81v86.76a139.31 139.31 0 0 1 99.26 100.83z" data-name="Upper right"/>
    <path fill="#13ff7c" d="M208.75 108.17V21.56A224.2 224.2 0 0 0 21.39 209.4h86.55a139.31 139.31 0 0 1 100.81-101.23z" data-name="Uppler Left"/>
  </g>
  <g data-name="Strict LED">
    <circle cx="286.21" cy="228.94" r="4.17" fill="#333" data-name="Outer Matte"/>
    <circle cx="286.21" cy="228.94" r="2.67" fill="#8a1700" data-name="Inner Light Inert"/>
    <circle cx="286.21" cy="228.94" r="2.67" fill="#df0000" data-name="Inner Light Active"/>
  </g>
  <g data-name="Strict Button">
    <circle cx="285.71" cy="247.94" r="12" fill="#333" data-name="Outer Matte"/>
    <circle cx="285.71" cy="247.94" r="8" fill="#dfbb00" data-name="Inner Button"/>
  </g>
  <g data-name="Start Button">
    <circle cx="251.04" cy="247.94" r="12" fill="#333" data-name="Outer Matte"/>
    <circle cx="251.04" cy="247.94" r="8" fill="#df0000" data-name="Inner Button"/>
  </g>
  <g data-name="Inert Buttons">
    <path fill="#cca707" d="M108.63 279.32H21.82a224.21 224.21 0 0 0 186.93 185.17v-86.61a139.33 139.33 0 0 1-100.12-98.56z" data-name="Lower Left"/>
    <path fill="#094a8f" d="M278.67 377.48v86.76a224.24 224.24 0 0 0 185.39-184.92h-86.82a139.34 139.34 0 0 1-98.57 98.16z" data-name="Lower Right"/>
    <path fill="#9f0f17" d="M377.93 209.4h86.55A224.21 224.21 0 0 0 278.67 21.81v86.76a139.31 139.31 0 0 1 99.26 100.83z" data-name="Upper right"/>
    <path fill="#00a74a" d="M208.75 108.17V21.56A224.2 224.2 0 0 0 21.39 209.4h86.55a139.31 139.31 0 0 1 100.81-101.23z" data-name="Uppler Left"/>
  </g>
</svg>
